<svg width="303" height="368" viewBox="0 0 303 368" fill="none" xmlns="http://www.w3.org/2000/svg">
<g clip-path="url(#clip0_7_331)">
<path d="M297.73 187.13C294.477 193.099 291.537 199.277 287.901 205.007C276.857 222.412 262.768 237.232 247.25 250.604C233.001 262.879 218.306 274.666 203.458 286.214C198.64 289.959 197.113 293.76 198.392 299.569C199.926 306.539 200.813 313.653 201.956 320.703C202.555 324.44 201.101 327.313 198.464 329.954C187.172 341.261 174.434 350.84 161.968 360.747C159.515 362.699 157.046 364.644 154.481 366.436C153.905 366.836 152.587 366.94 152.091 366.564C137.355 355.121 122.444 343.918 108.891 331.01C104.648 326.969 103.817 322.592 104.72 317.31C105.99 309.868 107.205 302.418 108.476 294.976C108.931 292.303 107.948 290.399 105.838 288.726C93.9716 279.364 82.0169 270.097 70.3738 260.454C53.6164 246.57 37.8978 231.598 24.7603 214.129C18.759 206.143 13.381 197.765 9.76098 188.37C9.5612 187.858 9.39339 187.33 9.20959 186.81C13.4609 191.379 17.5204 196.1 21.9475 200.437C35.1249 213.337 49.9644 224.164 65.9547 233.199C85.0375 243.994 104.592 253.957 123.89 264.359C126.919 265.992 129.732 268.024 132.625 269.905C134.063 270.841 134.439 272.146 134.127 273.874C132.625 282.092 131.218 290.327 129.772 298.553C129.748 298.713 129.724 298.873 129.692 299.033C128.11 307.78 130.707 314.55 138.914 318.711C143.205 320.887 147.456 323.168 151.756 325.321C152.403 325.649 153.41 325.857 154.017 325.585C160.929 322.536 167.786 319.359 173.451 314.158C175.937 311.877 177.199 308.996 176.88 305.747C176.192 298.809 175.273 291.887 174.307 284.973C173.787 281.236 173.036 277.531 172.269 273.834C171.909 272.098 172.365 270.769 173.811 269.881C178.254 267.16 182.649 264.335 187.236 261.855C204.969 252.268 223.005 243.201 240.481 233.167C258.525 222.812 275.251 210.528 289.563 195.244C292.136 192.491 294.517 189.562 296.986 186.714C297.226 186.85 297.474 186.986 297.714 187.122L297.73 187.13Z" fill="#FF0000" stroke="white" stroke-width="4" stroke-miterlimit="10"/>
<path d="M9.21754 186.81C-56.6055 -45.7442 350.04 -73.0719 297.002 186.698" stroke="white" stroke-width="4" stroke-miterlimit="10"/>
</g>
<defs>
<clipPath id="clip0_7_331">
<rect width="303" height="368" fill="white"/>
</clipPath>
</defs>
</svg>
